<?xml version="1.0" standalone="no"?>
<!DOCTYPE svg PUBLIC "-//W3C//DTD SVG 20010904//EN"
 "http://www.w3.org/TR/2001/REC-SVG-20010904/DTD/svg10.dtd">
<svg version="1.0" xmlns="http://www.w3.org/2000/svg"
 width="48.000000pt" height="48.000000pt" viewBox="0 0 48.000000 48.000000"
 preserveAspectRatio="xMidYMid meet">

<g transform="translate(0.000000,48.000000) scale(0.100000,-0.100000)"
fill="#92400e" stroke="none">
<path d="M143 365 c-83 -63 -87 -75 -82 -204 6 -116 6 -116 179 -116 176 0
174 -1 178 128 2 51 -1 104 -7 119 -13 36 -136 128 -170 128 -16 0 -54 -22
-98 -55z m145 -247 c-6 -17 -90 -17 -95 0 -3 8 10 12 47 12 37 0 50 -4 48 -12z"/>
</g>
</svg>
